<?xml version="1.0" standalone="no"?>
<!DOCTYPE svg PUBLIC "-//W3C//DTD SVG 20010904//EN"
 "http://www.w3.org/TR/2001/REC-SVG-20010904/DTD/svg10.dtd">
<svg version="1.0" xmlns="http://www.w3.org/2000/svg"
 width="512.000000pt" height="512.000000pt" viewBox="0 0 512.000000 512.000000"
 preserveAspectRatio="xMidYMid meet">
<metadata>
Created by potrace 1.14, written by Peter Selinger 2001-2017
</metadata>
<g transform="translate(0.000000,512.000000) scale(0.100000,-0.100000)"
fill="#000000" stroke="none">
<path d="M2348 4597 c-11 -11 -18 -13 -26 -5 -8 8 -13 7 -18 -5 -3 -9 -10 -14
-15 -11 -5 3 -9 1 -9 -5 0 -6 -7 -8 -15 -5 -8 4 -15 1 -15 -5 0 -6 -7 -11 -16
-11 -8 0 -12 -4 -9 -10 3 -5 -3 -10 -14 -10 -12 0 -21 -7 -21 -16 0 -8 -3 -13
-7 -11 -5 3 -14 -1 -21 -9 -7 -8 -10 -14 -7 -14 3 0 0 -6 -7 -14 -7 -8 -17
-11 -22 -9 -5 3 -7 0 -4 -8 3 -8 -2 -20 -9 -28 -8 -7 -12 -20 -9 -28 3 -8 2
-12 -2 -10 -4 3 -14 -2 -22 -11 -13 -14 -12 -15 3 -9 16 6 16 4 3 -22 -12 -22
-12 -31 -3 -41 8 -9 9 -11 0 -6 -8 4 -12 -11 -15 -49 -2 -32 1 -55 7 -55 6 0
3 -5 -5 -10 -11 -7 -11 -10 -2 -10 9 0 10 -5 3 -19 -8 -14 -7 -22 5 -32 12
-10 12 -14 2 -20 -10 -7 -10 -9 0 -9 6 0 12 -9 12 -20 0 -11 4 -20 8 -20 5 0
9 -6 9 -12 1 -26 8 -43 26 -59 9 -9 17 -24 17 -33 0 -10 5 -14 10 -11 9 6 15
-8 11 -29 -1 -5 5 -6 13 -3 10 4 13 1 9 -8 -3 -8 2 -18 11 -21 9 -3 13 -11 9
-17 -3 -5 -1 -7 4 -4 6 4 18 -4 27 -18 9 -14 23 -25 32 -25 8 0 12 -4 9 -10
-3 -5 -1 -10 5 -10 6 0 9 -4 5 -9 -3 -5 5 -11 17 -13 14 -2 23 -9 22 -20 -1
-11 5 -15 18 -13 10 2 17 1 14 -3 -5 -9 20 -32 28 -25 3 4 6 1 6 -5 0 -7 7
-12 17 -12 9 0 13 -3 10 -7 -4 -3 3 -11 16 -18 15 -8 24 -8 30 -1 5 6 5 1 2
-11 -5 -19 -2 -23 15 -23 12 0 18 -4 15 -10 -3 -6 1 -7 9 -4 10 4 18 -1 22
-11 4 -9 13 -14 21 -11 8 3 11 1 8 -4 -3 -6 2 -13 12 -17 10 -4 20 -9 23 -12
3 -4 18 -12 33 -19 17 -7 27 -18 24 -25 -3 -9 3 -13 17 -13 11 1 20 -4 19 -11
-3 -16 27 -10 37 8 5 8 15 14 22 14 7 1 12 6 11 13 -3 11 10 16 30 13 4 0 7 4
7 10 0 5 4 7 10 4 6 -3 7 1 4 10 -4 9 -3 15 2 13 14 -4 55 22 49 31 -3 5 6 12
20 15 14 4 25 13 25 21 0 8 9 15 21 15 11 0 17 4 14 10 -3 5 6 12 21 16 16 4
22 9 14 14 -8 5 -4 9 10 13 14 4 19 10 14 18 -4 8 -3 10 4 5 7 -4 12 -3 12 3
0 6 7 8 15 5 11 -5 13 -2 8 12 -4 12 -3 15 5 10 7 -4 12 -2 12 3 0 6 8 11 18
11 14 0 15 2 2 10 -12 8 -11 10 8 10 13 0 22 6 22 15 0 8 5 15 11 15 5 0 7 5
4 10 -6 9 7 14 27 11 4 0 5 5 2 12 -3 8 5 19 18 26 15 7 16 10 4 6 -16 -5 -17
-3 -6 10 7 8 16 12 21 9 5 -3 6 2 3 10 -4 9 0 18 9 22 9 3 14 14 12 26 -3 11
-2 18 2 15 8 -9 32 24 33 46 0 9 5 17 11 17 5 0 8 4 5 9 -3 5 4 22 16 37 15
19 17 24 5 15 -15 -12 -17 -12 -11 3 3 9 10 16 16 16 5 0 6 5 3 10 -4 6 -2 17
4 24 6 7 9 21 5 30 -4 11 -1 16 12 16 17 0 17 1 -1 13 -10 8 -14 17 -9 20 5 3
8 24 6 46 -2 23 -7 39 -11 37 -3 -2 -7 8 -8 22 -2 42 -12 77 -23 80 -6 2 -8 8
-4 13 3 5 1 9 -4 9 -5 0 -15 14 -22 30 -7 18 -20 30 -31 30 -10 0 -21 5 -25
12 -5 7 -3 8 7 3 12 -7 12 -6 1 7 -8 9 -19 15 -27 12 -7 -3 -20 4 -28 16 -11
15 -16 18 -20 8 -4 -9 -6 -7 -6 5 -1 20 -12 22 -29 5 -8 -8 -12 -8 -12 -1 0 6
-7 14 -16 17 -8 3 -12 2 -9 -4 9 -15 -2 -12 -19 6 -15 14 -16 14 -16 -3 0 -15
-2 -16 -10 -3 -7 11 -10 11 -10 2 0 -7 -5 -10 -10 -7 -6 4 -18 1 -26 -6 -9 -8
-18 -9 -22 -3 -4 5 -15 10 -25 10 -14 2 -15 -1 -6 -12 10 -12 9 -13 -4 -8 -16
6 -27 -1 -69 -41 -13 -12 -18 -14 -14 -5 6 12 5 12 -6 -1 -7 -9 -20 -18 -28
-22 -10 -3 -11 -6 -2 -6 10 -1 10 -4 0 -15 -7 -8 -16 -12 -20 -9 -5 2 -8 -3
-8 -11 0 -9 -4 -16 -9 -16 -5 0 -12 -11 -15 -25 -6 -24 -26 -36 -26 -15 0 6
-6 10 -12 10 -7 0 -18 11 -25 25 -8 19 -8 23 0 19 7 -4 1 4 -13 17 -13 13 -28
25 -32 25 -5 1 -11 2 -14 3 -4 0 -1 8 6 17 8 8 9 14 4 13 -23 -4 -45 2 -39 11
3 6 -3 10 -14 10 -11 0 -23 5 -27 12 -5 7 -3 8 6 3 8 -5 11 -4 6 3 -4 6 -14 8
-23 5 -11 -5 -14 -3 -8 6 6 10 3 11 -15 1 -15 -8 -20 -8 -16 -1 4 6 1 11 -8
11 -8 0 -22 3 -32 7 -12 4 -15 3 -10 -5 5 -8 2 -10 -8 -6 -9 3 -14 9 -12 13 3
4 -4 7 -14 7 -10 0 -16 -4 -14 -8 3 -4 1 -8 -5 -8 -5 0 -11 5 -13 11 -3 8 -9
6 -20 -4z"/>
<path d="M2010 3570 c0 -6 -12 -8 -26 -6 -22 4 -24 3 -13 -10 10 -13 8 -13
-15 -4 -20 7 -25 7 -20 -2 5 -8 2 -9 -9 -5 -10 3 -17 3 -17 -2 0 -8 -38 -24
-52 -22 -5 1 -8 -4 -8 -9 0 -6 -11 -15 -25 -20 -14 -5 -25 -14 -25 -19 0 -6
-7 -7 -17 -4 -9 4 -14 2 -10 -3 3 -6 -5 -18 -18 -28 -14 -10 -22 -22 -20 -26
3 -4 -2 -11 -11 -14 -8 -3 -12 -11 -9 -16 4 -6 2 -9 -3 -8 -6 2 -10 -1 -10 -6
0 -5 -6 -12 -14 -17 -7 -5 -13 -14 -13 -21 -1 -7 -7 -12 -15 -10 -11 2 -11 0
-1 -11 9 -12 8 -16 -5 -21 -13 -5 -14 -9 -4 -21 10 -12 10 -15 -3 -15 -11 0
-15 -8 -12 -30 3 -22 0 -30 -11 -30 -14 0 -14 -2 0 -16 18 -17 21 -28 6 -19
-14 9 -12 -8 3 -24 10 -11 9 -12 -2 -6 -10 6 -11 2 -6 -16 12 -36 12 -63 0
-71 -6 -5 -2 -8 9 -8 12 0 16 -5 13 -15 -4 -8 -2 -17 4 -20 5 -4 7 -11 4 -16
-4 -5 -1 -9 4 -9 6 0 11 -14 11 -31 0 -16 4 -28 8 -25 5 3 14 -12 21 -32 25
-71 36 -92 51 -93 10 0 11 -2 3 -6 -10 -3 -9 -8 2 -20 8 -8 12 -19 9 -25 -4
-7 -2 -8 5 -4 6 4 14 0 17 -11 17 -51 30 -73 43 -73 8 0 11 -6 7 -15 -3 -8 -1
-15 5 -15 6 0 7 -4 4 -10 -4 -6 1 -7 12 -3 10 3 15 3 11 -2 -4 -4 -2 -15 5
-23 9 -12 9 -14 0 -9 -7 5 -17 -1 -23 -13 -6 -11 -16 -17 -22 -14 -8 5 -9 1
-5 -10 4 -9 3 -15 -2 -11 -12 7 -42 -5 -36 -15 3 -5 -11 -18 -30 -30 -19 -12
-35 -26 -35 -31 0 -6 -4 -8 -9 -4 -5 3 -12 -4 -16 -15 -4 -11 -9 -18 -13 -16
-10 5 -32 -20 -25 -28 4 -3 -1 -6 -10 -6 -9 0 -17 -7 -17 -17 0 -9 -3 -14 -6
-10 -6 6 -50 -34 -47 -43 0 -3 -5 -11 -13 -18 -8 -7 -14 -10 -14 -7 0 11 -26
-19 -33 -38 -4 -10 -12 -15 -17 -12 -6 4 -10 3 -9 -2 4 -22 -2 -34 -13 -27 -7
4 -10 3 -5 -1 4 -5 -1 -17 -10 -28 -13 -15 -14 -18 -3 -12 8 4 6 -2 -5 -13
-36 -37 -44 -50 -38 -56 4 -3 1 -6 -5 -6 -7 0 -12 -6 -12 -14 0 -8 -6 -16 -14
-19 -9 -4 -13 -16 -11 -32 1 -16 -3 -29 -11 -32 -8 -3 -14 -10 -13 -17 3 -23
-1 -37 -9 -32 -5 3 -8 -10 -7 -29 0 -19 -3 -35 -8 -35 -4 0 -5 -5 -1 -11 3 -6
0 -15 -7 -20 -12 -7 -12 -9 0 -9 11 0 11 -3 0 -17 -12 -15 -12 -16 1 -8 13 8
13 7 1 -8 -11 -14 -11 -17 0 -17 9 0 10 -3 4 -8 -12 -8 -13 -37 -2 -48 4 -4 2
-13 -4 -21 -9 -10 -8 -13 1 -13 10 0 10 -3 0 -15 -10 -12 -10 -15 1 -15 11 0
11 -2 -1 -10 -13 -9 -13 -10 0 -10 13 0 13 -1 0 -10 -13 -9 -7 -14 13 -11 4 0
7 -3 7 -9 0 -5 -5 -10 -11 -10 -8 0 -7 -6 2 -17 12 -15 12 -16 -6 -10 -17 6
-18 5 -4 -5 9 -7 14 -18 12 -25 -2 -7 1 -22 7 -34 8 -15 9 -19 1 -15 -6 4 -11
2 -11 -3 0 -6 4 -11 9 -11 4 0 8 -15 8 -32 -1 -22 4 -32 12 -30 8 1 10 -2 5
-10 -13 -20 -13 -39 -2 -31 7 4 9 -2 6 -15 -4 -12 -2 -22 2 -22 4 0 6 -9 3
-20 -3 -12 0 -20 6 -20 7 0 11 -8 9 -18 -2 -11 4 -27 12 -37 8 -11 10 -16 3
-11 -9 5 -11 2 -7 -8 3 -9 11 -13 16 -10 6 4 9 1 6 -7 -2 -7 1 -25 8 -38 7
-14 10 -29 7 -34 -3 -6 -1 -7 5 -3 6 3 13 2 17 -4 3 -5 1 -10 -5 -10 -6 0 -8
-5 -5 -10 4 -6 11 -8 16 -5 5 3 6 -1 3 -9 -3 -9 -1 -16 6 -16 6 0 8 -4 5 -10
-3 -5 -1 -10 5 -10 6 0 8 -4 5 -10 -3 -6 -1 -10 5 -10 6 0 8 -4 5 -10 -3 -5 0
-10 8 -10 19 0 30 -27 14 -34 -7 -2 -4 -5 6 -5 10 -1 22 -13 27 -27 6 -15 14
-22 22 -18 6 4 8 3 5 -3 -4 -6 0 -14 9 -17 8 -3 12 -10 9 -16 -6 -9 7 -14 27
-11 4 0 5 -6 2 -14 -4 -8 -1 -15 6 -15 6 0 8 -5 5 -10 -4 -6 -3 -10 2 -9 18 3
33 -2 33 -11 0 -15 33 -50 47 -50 7 0 13 -5 13 -11 0 -5 5 -7 10 -4 6 3 10 -1
10 -9 0 -14 36 -33 54 -27 5 1 3 -6 -4 -16 -8 -10 -10 -15 -5 -10 4 4 17 -1
28 -10 11 -10 17 -12 12 -4 -5 8 2 7 19 -4 15 -10 31 -25 36 -34 6 -10 9 -11
10 -3 0 8 8 6 22 -8 12 -11 30 -20 39 -20 10 0 21 -5 25 -12 5 -7 3 -8 -6 -3
-8 5 -11 4 -6 -3 3 -6 19 -8 33 -6 15 3 24 2 20 -2 -9 -9 39 -34 65 -34 10 0
16 -5 13 -10 -4 -6 -3 -10 2 -9 26 4 63 -2 58 -11 -3 -6 1 -7 9 -4 10 4 16 1
16 -7 0 -11 3 -11 10 1 5 8 10 10 10 4 0 -6 10 -10 23 -10 12 1 27 0 32 -3 6
-3 19 -7 29 -8 11 -2 25 -8 32 -14 8 -7 14 -6 20 2 5 8 3 9 -6 4 -8 -5 -11 -4
-7 3 4 5 16 8 27 5 11 -3 18 -8 16 -12 -5 -7 45 -5 84 3 14 3 27 0 32 -7 6 -9
8 -9 8 0 0 7 6 10 14 7 8 -3 24 -1 35 6 14 7 21 7 21 0 0 -5 5 -10 11 -10 5 0
8 4 4 9 -3 5 -1 12 5 16 5 3 10 2 10 -4 0 -6 15 -5 39 4 22 7 42 11 45 8 3 -4
6 0 6 7 0 7 3 10 7 7 3 -4 13 -1 21 6 13 10 14 9 7 -2 -6 -11 -5 -12 6 -5 8 5
17 9 21 9 3 0 10 4 15 9 5 5 2 6 -6 1 -10 -6 -12 -4 -7 4 6 9 11 9 21 1 11 -9
17 -7 27 9 10 16 15 18 27 8 10 -8 13 -8 8 -1 -8 13 19 27 34 19 5 -4 6 0 3 8
-3 8 2 17 11 21 11 4 14 2 10 -7 -4 -6 2 -1 13 13 12 14 24 22 27 18 4 -4 18
6 32 23 14 16 34 29 44 29 11 0 17 5 14 10 -6 9 8 14 28 11 5 -1 6 3 3 8 -4 5
5 18 20 28 14 10 40 31 57 48 18 16 35 29 40 27 4 -1 7 4 7 12 0 8 7 17 16 20
8 3 12 11 8 17 -4 8 -3 9 5 5 7 -5 21 2 35 16 12 12 29 24 37 26 7 2 19 9 24
16 6 7 18 15 28 19 10 4 16 11 13 16 -3 5 2 8 12 7 9 0 16 5 14 12 -1 6 1 11
5 11 21 -3 33 2 31 14 -2 6 5 11 15 11 15 -2 21 8 18 28 0 4 6 5 14 2 9 -4 22
6 35 28 11 18 20 29 20 25 0 -4 6 -2 14 5 7 7 11 19 9 25 -3 8 4 13 18 13 19
0 21 2 9 10 -12 8 -12 10 3 16 9 3 14 10 11 15 -3 5 0 9 6 9 6 0 8 5 5 10 -3
6 -1 10 5 10 6 0 8 5 5 10 -3 6 -3 10 2 10 12 0 35 58 28 70 -4 6 -1 9 7 8 8
-2 12 4 10 16 -2 11 4 26 14 33 10 7 13 13 6 13 -6 0 -9 7 -6 15 4 8 10 12 15
9 13 -7 7 19 -6 28 -6 5 -5 8 3 8 10 0 10 5 1 23 -11 20 -11 21 4 9 13 -11 15
-11 13 2 -1 9 -5 18 -8 22 -10 9 3 35 13 28 5 -3 6 2 3 10 -3 9 -11 13 -18 9
-8 -5 -8 -3 0 8 6 8 10 22 9 32 -2 9 2 17 8 17 7 0 4 5 -6 11 -18 10 -18 11 0
26 10 8 12 12 6 8 -8 -4 -13 0 -13 10 0 10 5 13 13 9 6 -4 4 2 -6 13 -13 15
-15 23 -6 28 8 6 7 10 -4 16 -10 6 -13 17 -9 31 3 14 2 19 -6 14 -8 -5 -12 2
-12 19 0 15 -4 24 -10 20 -5 -3 -10 1 -10 9 0 9 -5 16 -11 16 -5 0 -7 5 -3 12
4 7 3 8 -5 4 -6 -4 -14 -1 -17 8 -3 8 -21 22 -40 31 -20 9 -32 21 -28 27 4 6
3 8 -4 4 -6 -3 -14 -1 -17 5 -4 5 -13 8 -21 5 -9 -3 -14 1 -15 12 0 10 -3 12
-6 5 -3 -10 -8 -10 -18 1 -11 10 -25 12 -60 5 -26 -5 -52 -12 -58 -16 -7 -4
-4 5 6 20 9 14 17 30 17 34 0 4 -5 1 -10 -7 -6 -9 -10 -10 -10 -3 0 6 5 15 11
18 6 4 8 13 5 21 -3 8 -1 14 3 14 5 0 8 8 7 18 -2 9 2 20 8 24 6 4 4 9 -7 14
-17 6 -17 7 0 21 10 8 13 12 6 9 -6 -4 -14 -2 -18 4 -3 5 -1 10 6 10 8 0 8 4
2 13 -6 6 -9 22 -8 34 1 12 -2 20 -7 17 -7 -5 -13 18 -9 39 1 5 -3 6 -9 2 -5
-3 -10 1 -10 10 0 9 -4 14 -9 10 -6 -3 -8 4 -6 15 2 13 -1 20 -11 20 -13 0
-19 12 -15 33 1 5 -3 6 -9 2 -5 -3 -10 1 -10 9 0 9 -6 16 -14 16 -7 0 -21 11
-30 25 -9 14 -21 23 -26 20 -6 -4 -10 1 -10 9 0 8 -9 18 -20 21 -12 4 -17 11
-13 18 4 7 -2 5 -12 -3 -11 -9 -16 -10 -11 -2 4 7 2 12 -5 12 -7 0 -21 8 -32
18 -11 9 -17 11 -13 5 4 -7 2 -13 -3 -13 -6 0 -11 4 -11 10 0 5 -7 6 -17 3 -9
-4 -14 -2 -10 3 3 5 -3 10 -14 10 -12 0 -18 -5 -14 -14 3 -8 0 -10 -8 -5 -18
11 -49 14 -43 4 3 -5 -4 -7 -16 -3 -16 4 -19 2 -13 -9 7 -11 6 -12 -6 -2 -10
8 -19 9 -25 3 -6 -6 -15 -6 -24 0 -13 8 -12 10 3 10 9 0 17 5 17 10 0 6 7 10
16 10 10 0 14 5 10 16 -4 9 -2 13 5 8 6 -4 15 0 20 7 4 8 12 14 16 14 4 0 18
10 31 23 12 12 28 20 34 16 6 -4 8 -3 5 3 -7 11 20 28 36 24 5 -1 6 3 3 8 -3
4 12 20 34 35 22 14 40 31 40 37 0 8 4 8 14 0 11 -9 14 -9 12 1 0 7 2 14 6 16
4 1 19 13 34 27 14 13 31 23 38 22 6 -1 10 6 8 16 -2 9 1 17 5 16 21 -4 33 2
27 13 -5 8 -2 9 10 5 9 -4 15 -3 13 1 -3 4 1 13 9 20 8 7 14 9 14 5 1 -4 6 2
13 14 7 12 16 23 22 25 5 2 9 6 8 10 -2 4 6 10 17 13 11 4 17 11 14 17 -5 8
-1 9 10 5 9 -4 15 -3 11 2 -3 5 2 16 10 24 8 9 15 20 15 25 0 6 7 12 15 16 8
3 15 13 15 21 0 9 4 14 9 10 6 -3 8 4 6 15 -3 14 1 20 13 20 13 0 14 2 3 9 -9
6 -10 11 -2 15 8 5 8 13 1 26 -7 13 -7 21 2 26 6 4 8 3 4 -4 -3 -6 -1 -14 5
-18 8 -4 9 -3 5 4 -4 7 -1 12 6 12 9 0 9 3 2 8 -17 11 -24 40 -11 46 9 3 8 5
-1 5 -10 1 -10 6 -2 21 9 17 8 19 -7 13 -15 -6 -16 -4 -5 9 9 12 10 18 2 23
-8 5 -7 12 2 23 7 10 8 14 4 10 -10 -9 -35 20 -36 41 0 8 -8 20 -17 28 -12 10
-13 12 -3 8 8 -4 6 1 -5 10 -11 9 -19 20 -18 25 1 4 -11 13 -27 20 -17 7 -30
16 -30 20 0 4 -8 7 -17 6 -10 0 -17 4 -16 11 2 7 -4 10 -12 7 -8 -4 -12 -10
-9 -15 3 -5 -2 -6 -10 -3 -9 3 -16 10 -16 14 0 5 -25 7 -55 6 -37 -2 -52 1
-48 8 4 6 -4 3 -19 -6 -18 -12 -28 -14 -36 -6 -8 8 -15 8 -25 0 -8 -7 -17 -9
-20 -5 -4 3 -7 1 -7 -6 0 -9 -5 -9 -21 0 -17 9 -20 8 -14 -2 6 -9 3 -11 -9 -6
-10 4 -15 3 -11 -3 3 -6 -1 -11 -9 -11 -9 -1 -19 -3 -23 -4 -5 -2 -18 -6 -30
-10 -13 -4 -20 -12 -17 -17 3 -5 -2 -8 -12 -6 -11 2 -18 -2 -17 -9 2 -8 -4
-10 -14 -6 -12 5 -14 3 -8 -7 6 -9 4 -12 -6 -8 -8 3 -20 -1 -27 -8 -7 -8 -9
-14 -5 -15 4 -1 -3 -4 -17 -8 -14 -4 -24 -13 -23 -18 1 -6 -9 -14 -22 -17 -14
-4 -25 -11 -25 -16 0 -6 -7 -10 -15 -10 -9 0 -18 -7 -22 -16 -3 -8 -17 -20
-30 -25 -15 -5 -21 -14 -17 -21 5 -7 3 -8 -5 -4 -15 10 -53 -23 -44 -37 3 -6
1 -7 -6 -3 -6 4 -8 13 -4 19 4 8 1 7 -9 -1 -14 -11 -17 -10 -22 5 -3 10 -5 21
-3 24 4 12 -36 49 -46 42 -5 -3 -7 -1 -3 5 3 6 2 13 -4 17 -6 4 -8 10 -5 15 3
5 0 12 -6 16 -8 5 -9 3 -4 -6 6 -9 4 -11 -4 -6 -7 5 -10 15 -6 24 3 9 3 13 -1
10 -8 -8 -44 34 -44 52 0 6 -4 8 -10 5 -9 -6 -14 8 -11 28 1 5 -3 6 -8 2 -12
-7 -71 43 -71 61 0 6 -7 15 -16 18 -10 4 -13 2 -8 -6 4 -7 3 -8 -4 -4 -7 4
-12 13 -12 21 0 7 -7 16 -16 19 -12 5 -14 3 -8 -7 5 -7 2 -6 -6 3 -9 9 -23 16
-33 14 -9 -1 -15 2 -11 7 3 5 -4 9 -15 9 -11 0 -23 4 -26 10 -3 5 -16 9 -28 9
-12 -1 -44 1 -70 4 -32 4 -46 3 -41 -4 4 -8 1 -8 -13 0 -14 7 -24 7 -33 -2
-10 -9 -11 -9 -6 1 4 6 2 12 -3 12 -6 0 -11 -5 -11 -10z"/>
</g>
</svg>
